#!OML:ASF E:\Style4\Style4.ASF
:FULLY-SPECIFIED
:DEGREES
2850
root -0.625656 16.92 -0.947295 6.32367 23.3101 4.57006
lowerback 18.4179 3.72278 -0.894073
upperback 11.7023 4.93059 -0.677157
thorax 2.29282 2.55056 -0.991945
lowerneck 5.06039 -5.28447 -4.49599
upperneck -9.45548 -6.92907 6.29207
head -3.59983 -3.56266 3.21867
rclavicle 1.90833e-014 -3.49861e-014
rhumerus 20.36 10.7388 -78.4073
rradius 121.812
rwrist 24.7573
rhand 21.4427 -4.51925
rfingers 7.12502
rthumb 45.8767 -27.665
lclavicle 1.90833e-014 -3.49861e-014
lhumerus 27.8257 -16.3516 72.4335
lradius 123.667
lwrist -11.8007
lhand 16.4766 38.5699
lfingers 7.12502
lthumb 41.2397 63.4097
rfemur -28.2936 -13.9747 18.0725
rtibia 54.8249
rfoot -30.143 -20.6821
rtoes -5.89823
lfemur -33.1028 -7.82621 -20.7345
ltibia 48.6405
lfoot -18.417 -4.88708
ltoes -8.85396
2851
root -0.606268 16.9302 -0.912927 6.03868 23.1213 4.68442
lowerback 18.2128 3.8044 -1.06313
upperback 11.5365 5.00959 -0.721091
thorax 2.20648 2.57997 -0.950255
lowerneck 5.05683 -5.27979 -4.46476
upperneck -9.406 -6.92056 6.28841
head -3.58343 -3.559 3.20919
rclavicle 5.96354e-014 -7.95139e-015
rhumerus 20.1383 10.8441 -78.3342
rradius 121.899
rwrist 24.7239
rhand 21.4196 -4.64385
rfingers 7.12502
rthumb 45.8552 -27.7985
lclavicle 5.96354e-014 -7.95139e-015
lhumerus 27.8374 -16.5177 72.3843
lradius 123.636
lwrist -11.6305
lhand 16.6434 38.781
lfingers 7.12502
lthumb 41.3963 63.5701
rfemur -27.6421 -13.7954 17.7864
rtibia 54.5784
rfoot -30.2209 -20.5503
rtoes -5.63082
lfemur -32.4589 -7.795 -20.9493
ltibia 48.4996
lfoot -18.5907 -4.75427
ltoes -8.8998
2852
root -0.585645 16.942 -0.877745 5.75422 22.9482 4.7425
lowerback 17.9683 3.8607 -1.19434
upperback 11.3532 5.0617 -0.718989
thorax 2.11956 2.596 -0.874887
lowerneck 5.03621 -5.28454 -4.51834
upperneck -9.36515 -6.93281 6.27223
head -3.56314 -3.56194 3.21087
rclavicle -4.29375e-014 4.77083e-015
rhumerus 19.9212 10.9067 -78.2975
rradius 121.99
rwrist 24.4989
rhand 21.6829 -4.65013
rfingers 7.12502
rthumb 46.0995 -27.7031
lclavicle -4.29375e-014 4.77083e-015
lhumerus 27.7427 -16.5969 72.4341
lradius 123.58
lwrist -11.5005
lhand 16.9068 38.7741
lfingers 7.12502
lthumb 41.6433 63.4826
rfemur -26.9812 -13.635 17.5691
rtibia 54.3124
rfoot -30.3232 -20.4247
rtoes -5.35715
lfemur -31.8209 -7.76366 -21.1073
ltibia 48.319
lfoot -18.7063 -4.62625
ltoes -9.1469
2853
root -0.562304 16.9526 -0.840466 5.46955 22.7219 4.64997
lowerback 17.6197 3.89932 -1.22253
upperback 11.1476 5.10658 -0.672689
thorax 2.06602 2.6114 -0.802552
lowerneck 5.03673 -5.26168 -4.61076
upperneck -9.38153 -6.9125 6.23233
head -3.56865 -3.5463 3.21397
rclavicle 7.31528e-014 -4.21423e-014
rhumerus 19.7471 11.0987 -78.2611
rradius 122.022
rwrist 24.429
rhand 21.7666 -4.50647
rfingers 7.12502
rthumb 46.1771 -27.5269
lclavicle 7.31528e-014 -4.21423e-014
lhumerus 27.5727 -16.5631 72.4829
lradius 123.603
lwrist -11.3511
lhand 16.8668 38.6925
lfingers 7.12502
lthumb 41.6058 63.4133
rfemur -26.3791 -13.4247 17.5353
rtibia 54.0014
rfoot -30.2948 -20.5192
rtoes -5.76715
lfemur -31.2303 -7.67607 -21.1101
ltibia 48.1226
lfoot -18.8097 -4.47803
ltoes -9.29834
2854
root -0.538953 16.9645 -0.804833 5.16643 22.5396 4.6251
lowerback 17.3492 3.93977 -1.24556
upperback 10.9365 5.15353 -0.667834
thorax 1.97205 2.6304 -0.782459
lowerneck 5.02226 -5.23941 -4.60773
upperneck -9.36251 -6.88558 6.18366
head -3.56252 -3.53026 3.19435
rclavicle 6.32135e-014 -2.3059e-014
rhumerus 19.5661 11.2486 -78.2196
rradius 122.042
rwrist 24.5144
rhand 21.6586 -4.44896
rfingers 7.12502
rthumb 46.077 -27.5114
lclavicle 6.32135e-014 -2.3059e-014
lhumerus 27.4783 -16.6244 72.4554
lradius 123.656
lwrist -11.1361
lhand 16.586 38.6963
lfingers 7.12502
lthumb 41.3424 63.5028
rfemur -25.72 -13.2609 17.4159
rtibia 53.6559
rfoot -30.2018 -20.5914
rtoes -6.24991
lfemur -30.5862 -7.66109 -21.1816
ltibia 47.9166
lfoot -18.957 -4.35018
ltoes -9.16242
2855
root -0.518431 16.9797 -0.768938 4.81962 22.372 4.51591
lowerback 17.1353 3.99271 -1.17389
upperback 10.7069 5.2279 -0.647221
thorax 1.83642 2.66736 -0.807296
lowerneck 4.98249 -5.23451 -4.64762
upperneck -9.3343 -6.87874 6.20521
head -3.54341 -3.52558 3.20558
rclavicle 3.18055e-015 -7.95139e-015
rhumerus 19.3271 11.351 -78.1801
rradius 122.135
rwrist 24.5656
rhand 21.5526 -4.56423
rfingers 7.12502
rthumb 45.9786 -27.6677
lclavicle 3.18055e-015 -7.95139e-015
lhumerus 27.3848 -16.7223 72.4774
lradius 123.747
lwrist -11.1973
lhand 16.5048 38.5637
lfingers 7.12502
lthumb 41.2662 63.3949
rfemur -25.0264 -13.0864 17.3919
rtibia 53.2656
rfoot -30.1089 -20.61
rtoes -6.49399
lfemur -29.9265 -7.58684 -21.1668
ltibia 47.6941
lfoot -19.0972 -4.20173
ltoes -9.50348
2856
root -0.49772 16.9966 -0.728844 4.47629 22.1844 4.33872
lowerback 16.8303 4.0283 -1.09292
upperback 10.4661 5.28241 -0.589327
thorax 1.73318 2.69291 -0.788988
lowerneck 5.01545 -5.20481 -4.72399
upperneck -9.40387 -6.84356 6.20649
head -3.57407 -3.50499 3.22336
rclavicle 9.93923e-014 -4.29375e-014
rhumerus 19.0137 11.6058 -78.1557
rradius 122.284
rwrist 24.7144
rhand 21.2434 -4.78675
rfingers 7.12502
rthumb 45.6915 -28.0086
lclavicle 9.93923e-014 -4.29375e-014
lhumerus 27.274 -16.7033 72.5464
lradius 123.884
lwrist -11.4511
lhand 16.7003 38.5064
lfingers 7.12502
lthumb 41.4496 63.2782
rfemur -24.3154 -12.9147 17.4469
rtibia 52.8237
rfoot -30.0671 -20.5921
rtoes -6.5828
lfemur -29.2846 -7.44185 -21.0738
ltibia 47.4419
lfoot -19.2028 -4.13847
ltoes -9.63164
2857
root -0.477958 17.0134 -0.690519 4.20465 22.0168 4.28338
lowerback 16.5121 4.08409 -1.09561
upperback 10.1995 5.35196 -0.57304
thorax 1.60731 2.72347 -0.770119
lowerneck 5.1074 -5.20993 -4.69533
upperneck -9.47461 -6.85365 6.15012
head -3.61879 -3.5087 3.20658
rclavicle -8.74653e-015 7.15625e-015
rhumerus 18.7269 11.7127 -78.1753
rradius 122.371
rwrist 24.8407
rhand 21.0208 -4.93718
rfingers 7.12502
rthumb 45.4848 -28.2432
lclavicle -8.74653e-015 7.15625e-015
lhumerus 27.1957 -16.8568 72.5108
lradius 123.971
lwrist -11.3242
lhand 16.3018 38.5902
lfingers 7.12502
lthumb 41.0756 63.4825
rfemur -23.6335 -12.7252 17.3868
rtibia 52.3696
rfoot -30.1074 -20.5062
rtoes -6.18271
lfemur -28.6384 -7.35945 -21.093
ltibia 47.1332
lfoot -19.2772 -4.08847
ltoes -9.53117
2858
root -0.45484 17.0312 -0.650248 3.9204 21.8617 4.28622
lowerback 16.2104 4.14036 -1.10968
upperback 9.92741 5.42074 -0.594614
thorax 1.47123 2.75468 -0.785455
lowerneck 5.18428 -5.20718 -4.66406
upperneck -9.42875 -6.85013 6.14955
head -3.61893 -3.5085 3.20244
rclavicle 1.23246e-014 -4.21423e-014
rhumerus 18.5532 11.6902 -78.1872
rradius 122.416
rwrist 24.8857
rhand 21.1643 -4.9235
rfingers 7.12502
rthumb 45.6182 -28.1754
lclavicle 1.23246e-014 -4.21423e-014
lhumerus 27.1161 -17.0577 72.4872
lradius 123.971
lwrist -11.0229
lhand 15.7513 38.538
lfingers 7.12502
lthumb 40.5584 63.5931
rfemur -22.8798 -12.5496 17.2434
rtibia 51.8689
rfoot -30.0467 -20.5052
rtoes -6.25169
lfemur -27.9037 -7.34896 -21.1897
ltibia 46.777
lfoot -19.3285 -4.00949
ltoes -9.20562
2859
root -0.430651 17.0513 -0.606965 3.66175 21.7027 4.34397
lowerback 15.8731 4.16409 -1.22321
upperback 9.65531 5.43539 -0.61824
thorax 1.3457 2.75459 -0.737176
lowerneck 5.3119 -5.14864 -4.64503
upperneck -9.44742 -6.77302 6.14294
head -3.65621 -3.47122 3.20139
rclavicle 4.05521e-014 -4.29375e-014
rhumerus 18.4151 11.7474 -78.2166
rradius 122.461
rwrist 24.9644
rhand 21.4477 -4.67792
rfingers 7.12502
rthumb 45.8813 -27.8217
lclavicle 4.05521e-014 -4.29375e-014
lhumerus 27.0224 -17.0617 72.5024
lradius 124.04
lwrist -11.041
lhand 15.6751 38.5481
lfingers 7.12502
lthumb 40.4867 63.6254
rfemur -22.1021 -12.4196 17.0395
rtibia 51.3311
rfoot -29.9113 -20.5353
rtoes -6.62238
lfemur -27.1233 -7.35308 -21.3451
ltibia 46.3587
lfoot -19.4614 -3.92037
ltoes -9.12251
2860
root -0.409058 17.0732 -0.564027 3.40867 21.5473 4.31285
lowerback 15.5233 4.18056 -1.28115
upperback 9.35662 5.44755 -0.608598
thorax 1.2009 2.75465 -0.684903
lowerneck 5.39447 -5.11774 -4.58562
upperneck -9.38089 -6.73566 6.07736
head -3.65521 -3.45242 3.16809
rclavicle -3.1408e-014 1.11319e-014
rhumerus 18.2545 11.8806 -78.2125
rradius 122.509
rwrist 24.9255
rhand 21.4352 -4.55317
rfingers 7.12502
rthumb 45.8696 -27.7018
lclavicle -3.1408e-014 1.11319e-014
lhumerus 26.9357 -17.1884 72.5829
lradius 124.035
lwrist -11.2723
lhand 15.4132 38.5918
lfingers 7.12502
lthumb 40.2405 63.7449
rfemur -21.3325 -12.2679 16.9541
rtibia 50.7182
rfoot -29.773 -20.5498
rtoes -6.75338
lfemur -26.3847 -7.3199 -21.398
ltibia 45.905
lfoot -19.6642 -3.62059
ltoes -10.1693
2861
root -0.389323 17.0978 -0.518926 3.09003 21.3945 4.16827
lowerback 15.1595 4.19342 -1.26394
upperback 9.07821 5.46595 -0.570994
thorax 1.09032 2.76045 -0.64374
lowerneck 5.37713 -5.08907 -4.51588
upperneck -9.1954 -6.69897 6.0214
head -3.59285 -3.43417 3.12646
rclavicle 2.14687e-014 1.11319e-014
rhumerus 18.1561 12.022 -78.2129
rradius 122.571
rwrist 24.7347
rhand 21.4459 -4.7579
rfingers 7.12502
rthumb 45.8796 -27.9024
lclavicle 2.14687e-014 1.11319e-014
lhumerus 26.8341 -17.3327 72.7462
lradius 124.052
lwrist -11.4852
lhand 15.2 38.5357
lfingers 7.12502
lthumb 40.0399 63.7497
rfemur -20.5051 -12.0634 17.001
rtibia 50.0509
rfoot -29.5755 -20.6756
rtoes -7.0343
lfemur -25.5962 -7.24946 -21.3235
ltibia 45.4191
lfoot -19.6907 -3.53038
ltoes -10.094
2862
root -0.368285 17.1253 -0.474563 2.75265 21.2651 4.03096
lowerback 14.8142 4.14375 -1.2894
upperback 8.79489 5.39702 -0.486833
thorax 0.95744 2.71984 -0.520457
lowerneck 5.40647 -4.96582 -4.63363
upperneck -9.02797 -6.55237 5.97461
head -3.54715 -3.35559 3.12161
rclavicle -8.17005e-014 3.97569e-014
rhumerus 18.0362 12.3394 -78.259
rradius 122.665
rwrist 24.7041
rhand 21.5555 -4.8763
rfingers 7.12502
rthumb 45.9813 -27.9786
lclavicle -8.17005e-014 3.97569e-014
lhumerus 26.6677 -17.1412 72.8949
lradius 124.196
lwrist -11.4456
lhand 15.2757 38.492
lfingers 7.12502
lthumb 40.1111 63.6845
rfemur -19.6276 -11.8883 17.0329
rtibia 49.3508
rfoot -29.4228 -20.7364
rtoes -7.25074
lfemur -24.7572 -7.21829 -21.2668
ltibia 44.8972
lfoot -19.6775 -3.41619
ltoes -10.0037
